<?xml version="1.0" encoding="UTF-8" standalone="no"?>
<svg
   xmlns:dc="http://purl.org/dc/elements/1.1/"
   xmlns:cc="http://creativecommons.org/ns#"
   xmlns:rdf="http://www.w3.org/1999/02/22-rdf-syntax-ns#"
   xmlns:svg="http://www.w3.org/2000/svg"
   xmlns="http://www.w3.org/2000/svg"
   xmlns:sodipodi="http://sodipodi.sourceforge.net/DTD/sodipodi-0.dtd"
   xmlns:inkscape="http://www.inkscape.org/namespaces/inkscape"
   inkscape:version="0.92.4 (5da689c313, 2019-01-14)"
   height="420.91199"
   width="1000"
   sodipodi:docname="Canva_(Wordmark).svg"
   xml:space="preserve"
   viewBox="0 0 1000 420.91199"
   y="0px"
   x="0px"
   id="Layer_1"
   version="1.1"><metadata
   id="metadata850">
  <rdf:RDF>
    <cc:Work
   rdf:about="">
      <dc:format>image/svg+xml</dc:format>
      <dc:type
   rdf:resource="http://purl.org/dc/dcmitype/StillImage" />
      <dc:title></dc:title>
    </cc:Work>
  </rdf:RDF>
</metadata>
<defs
   id="defs848" />
<sodipodi:namedview
   inkscape:current-layer="Layer_1"
   inkscape:window-maximized="1"
   inkscape:window-y="-8"
   inkscape:window-x="1912"
   inkscape:cy="70.500996"
   inkscape:cx="628.10948"
   inkscape:zoom="0.7"
   showgrid="false"
   id="namedview846"
   inkscape:window-height="1017"
   inkscape:window-width="1920"
   inkscape:pageshadow="2"
   inkscape:pageopacity="0"
   guidetolerance="10"
   gridtolerance="10"
   objecttolerance="10"
   borderopacity="1"
   inkscape:document-rotation="0"
   bordercolor="#666666"
   pagecolor="#ffffff"
   fit-margin-top="0"
   fit-margin-left="0"
   fit-margin-right="0"
   fit-margin-bottom="0" />

<g
   id="g843"
   transform="matrix(7.0151998,0,0,7.0151998,-0.00107434,0)">
	<path
   inkscape:connector-curvature="0"
   id="path833"
   d="m 41.361,45.976 c -2.424,3.237 -5.564,6.723 -9.72,9.377 C 27.559,57.927 23,60 17.606,60 12.627,60 8.399,57.346 6.061,55.188 2.593,51.951 0.758,47.137 0.217,42.738 -1.485,28.88 6.989,10.705 20.118,2.738 23.131,0.913 26.504,0 29.574,0 c 6.307,0 11.015,4.495 11.674,9.863 0.594,4.838 -1.349,9.016 -6.735,11.724 -2.754,1.384 -4.115,1.319 -4.544,0.66 -0.287,-0.441 -0.126,-1.186 0.429,-1.648 C 35.463,16.383 35.56,12.925 34.962,8.05 34.576,4.913 32.504,2.905 30.18,2.905 c -9.959,0 -24.239,22.241 -22.252,38.424 0.774,6.307 4.658,13.61 12.626,13.61 2.655,0 5.468,-0.747 7.971,-1.992 5.545,-2.821 8.029,-4.897 11.369,-9.461 0.428,-0.581 0.844,-1.245 1.343,-1.909 0.344,-0.581 0.822,-0.747 1.237,-0.747 0.497,0 0.963,0.415 1.044,1.079 0.062,0.498 -0.096,1.245 -0.667,1.992 -0.501,0.664 -0.989,1.411 -1.49,2.075 z"
   style="fill:#24beca" />

	<path
   inkscape:connector-curvature="0"
   id="path835"
   d="m 56.414,54.108 c -2.49,0 -3.898,-1.328 -4.391,-3.319 -1.644,2.157 -3.824,3.319 -6.149,3.319 -3.818,0 -7.451,-3.237 -7.981,-7.552 -0.927,-7.552 5.588,-17.344 15.381,-17.344 4.149,0 7.589,1.659 7.997,4.979 0.51,4.149 -3.04,4.979 -4.368,4.979 -1.162,0 -3.029,-0.332 -3.16,-1.411 -0.143,-1.161 2.511,-0.497 2.186,-3.154 -0.204,-1.659 -1.935,-2.24 -3.595,-2.24 -5.975,0 -9.272,8.298 -8.64,13.444 0.286,2.323 1.483,4.647 3.642,4.647 1.742,0 4.258,-2.49 5.22,-6.142 0.608,-2.49 2.977,-4.149 4.719,-4.149 0.913,0 1.544,0.414 1.657,1.327 0.041,0.332 0.009,0.747 -0.096,1.245 -0.199,1.079 -1.03,4.669 -0.994,5.414 0.032,0.648 0.405,1.537 1.534,1.537 1.245,0 7.121,-3.42 10.534,-8.068 0.281,-0.415 0.831,-0.664 1.33,-0.664 0.498,0 0.943,0.249 1.013,0.83 0.072,0.582 -0.169,1.328 -0.876,2.324 -3.901,5.396 -12.058,9.998 -14.963,9.998 z"
   style="fill:#24beca" />

	<path
   inkscape:connector-curvature="0"
   id="path837"
   d="m 138.8,51.287 c 0.295,2.407 1.403,3.983 2.427,4.896 0.373,0.332 0.59,0.747 0.621,0.996 0.081,0.664 -0.428,1.245 -1.259,1.245 -0.25,0 -0.581,0 -0.851,-0.165 -4.279,-1.744 -6.048,-4.647 -6.551,-7.387 -1.652,2.075 -3.836,3.237 -6.075,3.237 -3.818,0 -7.546,-3.319 -8.075,-7.635 -0.919,-7.469 5.848,-17.261 15.474,-17.261 4.067,0 7.579,1.577 7.986,4.896 0.521,4.232 -3.111,5.062 -4.355,5.062 -1.245,0 -3.113,-0.332 -3.243,-1.411 -0.134,-1.078 2.593,-0.497 2.277,-3.07 -0.203,-1.66 -1.944,-2.323 -3.606,-2.323 -5.56,0 -9.381,7.386 -8.648,13.361 0.295,2.406 1.41,4.731 3.568,4.731 1.743,0 4.343,-2.49 5.304,-6.142 0.619,-2.406 2.976,-4.149 4.72,-4.149 0.829,0 1.544,0.414 1.667,1.41 0.062,0.499 -0.138,1.577 -1.07,5.478 -0.378,1.658 -0.453,3.069 -0.311,4.231 z"
   style="fill:#24beca" />

	<path
   inkscape:connector-curvature="0"
   id="path839"
   d="m 87.144,49.774 c 1.328,0 5.657,-1.652 9.069,-6.299 0.363,-0.415 0.831,-0.664 1.329,-0.664 0.58,0 1.026,0.249 1.109,0.913 0.061,0.499 -0.263,1.245 -0.969,2.241 -3.901,5.394 -10.492,8.132 -13.396,8.132 -2.987,0 -4.621,-1.826 -4.957,-4.563 -0.113,-0.913 -0.081,-1.992 0.11,-3.154 0.988,-6.142 3.257,-9.958 3.115,-11.121 -0.04,-0.332 -0.227,-0.497 -0.477,-0.497 -1.909,0 -8.615,6.888 -9.632,11.452 l -0.795,3.652 c -0.516,2.572 -3.05,4.231 -4.792,4.231 -0.831,0 -1.462,-0.415 -1.575,-1.328 -0.041,-0.332 -0.008,-0.746 0.097,-1.245 0,0 3.31,-17.015 3.463,-17.831 0.371,-1.998 1.092,-4.054 5.157,-4.054 0.831,0 1.463,0.414 1.585,1.41 0.041,0.332 0.009,0.747 -0.097,1.245 l -1.135,5.122 c 3.568,-4.729 9.114,-8.215 12.434,-8.215 1.411,0 2.498,0.746 2.684,2.241 0.1,0.829 -0.142,2.24 -0.694,3.817 -1.182,3.237 -2.51,8.097 -3.39,12.283 -0.185,0.888 0.125,2.232 1.757,2.232 z"
   style="fill:#24beca" />

	<path
   inkscape:connector-curvature="0"
   id="path841"
   d="m 109.845,29.959 c 0,2.324 1.162,4.73 2.654,6.307 0.583,-1.577 0.914,-3.154 0.914,-4.73 0,-2.987 -1.162,-4.315 -2.076,-4.315 -1.077,-0.001 -1.492,1.493 -1.492,2.738 z m 5.063,12.448 c -0.5,0 -0.914,0 -1.412,-0.082 -3.734,5.393 -7.635,9.129 -10.623,10.788 -1.245,0.664 -2.405,0.996 -3.236,0.996 -0.664,0 -1.412,-0.165 -1.743,-0.747 -1.328,-2.24 -1.909,-6.805 -1.909,-11.536 0,-3.486 0.248,-6.307 0.912,-8.382 0.664,-2.158 3.403,-4.232 5.229,-4.232 0.914,0 1.578,0.498 1.578,1.494 0,0.332 -0.083,0.747 -0.25,1.162 -1.245,3.651 -1.909,7.055 -1.909,10.457 0,1.909 0.415,4.979 0.831,6.556 0.083,0.332 0.164,0.664 0.497,0.664 0.581,0 4.482,-3.818 7.302,-8.465 -2.489,-1.577 -3.9,-4.482 -3.9,-8.051 0,-5.974 3.569,-9.046 7.055,-9.046 2.74,0 5.229,1.992 5.229,5.975 0,2.49 -0.997,5.311 -2.406,8.051 0,0 0.581,0.082 0.829,0.082 2.159,0 3.817,-0.996 4.731,-2.074 0.664,-0.747 1.245,-1.245 1.826,-1.245 0.415,0 0.581,0.332 0.581,0.746 0,0.25 -0.083,0.664 -0.333,1.079 -1.991,3.57 -5.808,5.81 -8.879,5.81 z"
   style="fill:#24beca" />

</g>

</svg>